<svg width="1915" height="260" viewBox="0 0 1915 260" fill="none" xmlns="http://www.w3.org/2000/svg">
    <mask id="mask0_1_7790" style="mask-type:luminance" maskUnits="userSpaceOnUse" x="0" y="0"
        width="1916" height="260">
        <path d="M0.000488281 260L1915 260L1915 0L0.000599891 -3.40949e-05L0.000488281 260Z"
            fill="white" />
    </mask>
    <g mask="url(#mask0_1_7790)">
        <path
            d="M1731.25 129.509C1731.25 130.993 1691.53 127.679 1691.53 129.6C1691.53 128.623 1652.34 130.904 1652.34 131.738C1652.34 132.783 1622.61 132.398 1622.61 134.997C1622.61 131.987 1587.17 130.91 1587.17 133.643C1587.17 136.931 1560.23 137.944 1560.23 136.277C1560.23 138.788 1531.61 132.162 1531.61 134.522C1531.61 134.208 1500.58 137.575 1500.58 137.481C1500.58 137.249 1474.03 134.304 1474.03 133.642C1474.03 134.838 1444.02 134.314 1444.02 133.694C1444.02 130.97 1413.08 133.315 1413.08 131.809C1413.08 132.479 1379.9 131.974 1379.9 131.972C1379.9 131.256 1348.39 132.044 1348.39 130.61C1348.39 133.698 1316.42 126.366 1316.42 129.669C1316.42 128.798 1288.57 123.929 1288.57 124.926C1288.57 126.525 1254.88 124.318 1254.88 125.563C1254.88 126.709 1222.59 126.215 1222.59 124.922C1222.59 126.417 1194.04 119.756 1194.04 120.822C1194.04 120.349 1161.73 121.441 1161.73 121.034C1161.73 119.251 1130.87 118.13 1130.87 119.981C1130.87 120.838 1099.57 122.902 1099.57 120.085C1099.57 120.336 1068.56 120.386 1068.56 118.911C1068.56 117.547 1034.76 120.416 1034.76 119.26C1034.76 120.093 1003.42 121.382 1003.42 121.952C1003.42 122.397 973.428 125.479 973.428 125.011C973.428 125.137 935.527 125.981 935.527 124.16C935.527 122.828 906.598 127.907 906.598 127.813C906.598 127.675 881.401 132.257 881.401 133.205C881.401 132.879 849.861 136.286 849.861 135.756C849.861 136.199 814.864 134.964 814.864 136.123C814.864 136.839 781.001 136.321 781.001 136.188C781.001 136.132 748.588 139.979 748.588 140.692C748.588 141.094 715.612 142.977 715.612 142.315C715.612 142.396 679.799 140.803 679.799 141.691C679.799 142.46 657.679 147.273 657.679 147.676C657.679 148.862 625.106 149.563 625.106 149.64C625.106 148.377 590.764 150.779 590.764 150.323C590.764 149.371 557.456 148.983 557.456 148.633C557.456 148.143 523.154 151.087 523.154 151.096C523.154 152.134 493.516 147.356 493.516 147.379C493.516 147.255 456.719 145.044 456.719 146.969C456.719 147.453 430.352 142.517 430.352 141.992C430.352 139.966 400.129 136.345 400.129 138.651C400.129 135.7 373.341 140.55 373.341 140.246C373.341 140.23 344.417 138.907 344.417 139.978C344.417 139.498 315.137 140.263 315.137 139.421C315.137 137.327 281.971 142.617 281.971 143.74C281.971 144.482 247.696 138.007 247.696 141.669C247.696 144.962 215.07 140.796 215.07 139.318C215.07 140.148 180.285 138.04 180.285 138.691C180.285 139.928 150.133 136.702 150.133 135.804C150.133 136.849 117.649 133.525 117.649 134.582C117.649 136.31 88.968 127.597 88.968 129.885C88.968 129.577 56.6568 129.391 56.6568 128.262C56.6568 131.735 22.9536 129.086 22.9536 128.139C22.9536 128.07 -12.0527 130.237 -12.0527 129.613C-12.0527 127.997 -43.6678 125.538 -43.6678 127.366C-43.6678 127.053 -67.3749 127.09 -67.3749 128.279C-67.3749 128.642 -87.7528 133.062 -87.7528 131.299C-87.7528 130.947 -99.4513 136.566 -99.4513 137.057C-99.4513 137.193 -112.245 144.493 -112.245 143.595C-112.245 143.329 -104.602 150.832 -104.602 150.128C-104.602 148.883 -114.248 156.519 -114.248 156.331C-114.248 156.141 -113.765 162.189 -113.765 162.805C-113.765 163.165 -136.08 167.768 -136.08 168.459C-136.08 168.328 -131.456 175.092 -131.456 175.092L-138.469 181.291L-136.359 187.786L-158.107 193.604L-149.946 200.193L-142.224 206.55L-161.857 213.015L-155.447 219.428L-144.214 225.547L-137.383 231.876L-111.371 236.984L-106.256 244.215L-77.7791 248.773L-73.5811 256.126L-46.2437 261.171L-34.4347 266.789L-27.2088 273.021L6.56069 273.695L38.4418 277.033L70.9393 274.433L102.639 277.771L134.777 277.841L166.924 277.853L199.262 276.405L231.099 278.772L263.277 278.542L295.304 279.484L327.509 279.066L360.064 275.862L392.083 276.87L423.977 278.884L456.107 279.037L488.409 277.724L520.485 278.321L552.695 277.747L584.691 279.05L616.63 280.933L649.047 278.403L680.906 281.14L713.302 278.669L745.507 278.006L777.339 281.272L809.806 277.713L841.762 279.776L873.745 281.673L906.016 280.05L938.217 279.207L970.36 279.049L1002.47 279.46L1034.41 282.707L1066.56 282.607L1098.81 280.541L1131.03 278.673L1163.1 280.159L1195.16 282.265L1227.29 282.58L1259.52 279.159L1291.61 281.099L1323.75 281.12L1355.89 281.088L1388.02 279.765L1420.18 283.095L1452.27 279.385L1484.4 279.657L1516.6 282.251L1548.74 281.952L1580.8 280.115L1612.97 280.811L1645.14 281.236L1677.14 279.116L1709.4 280.975L1739.66 280.268L1770.08 280.385L1800.5 280.066L1828.33 276.614L1859.33 276.899L1888.99 275.459L1916.92 272.893L1937.4 268.149L1964.45 264.972L1986.77 260.392L1995.06 254.186L2002.23 248.149L1997.42 241.752L2004.89 235.86L2004.14 229.749L2004.89 223.642L2009.96 217.253L2016.45 210.871L2019.81 204.459L2021.91 198.034L2023.09 191.6L2027.22 185.154L2008.67 178.787L2012.21 172.362L2011.84 165.951L2005 159.645L2019.8 152.861L2015.43 146.436C2015.43 146.436 2003.83 138.778 2003.83 139.003C2003.83 138.688 1983.31 132.152 1983.31 132.804C1983.31 132.863 1955.13 128.289 1955.13 129.661C1955.13 129.813 1926.14 131.919 1926.14 132.605C1926.14 133.844 1893.86 134.44 1893.86 134.432C1893.86 132.355 1861.03 131.329 1861.03 132.537C1861.03 132.272 1828.7 131.588 1828.7 131.789C1828.7 129.494 1795.79 135.279 1795.79 132.662C1795.79 134.324 1764.02 129.708 1764.02 130.006C1764.02 130.868 1731.25 130.707 1731.25 129.509Z"
            fill="white" />
    </g>
</svg>