<svg width="34" height="34" viewBox="0 0 34 34" fill="none" xmlns="http://www.w3.org/2000/svg">
    <path
        d="M28.2 4.2H25V2.6C25 2.17565 24.8314 1.76869 24.5314 1.46863C24.2313 1.16857 23.8243 1 23.4 1C22.9757 1 22.5687 1.16857 22.2686 1.46863C21.9686 1.76869 21.8 2.17565 21.8 2.6V4.2H12.2V2.6C12.2 2.17565 12.0314 1.76869 11.7314 1.46863C11.4313 1.16857 11.0243 1 10.6 1C10.1757 1 9.76869 1.16857 9.46863 1.46863C9.16857 1.76869 9 2.17565 9 2.6V4.2H5.8C4.52696 4.2 3.30606 4.70571 2.40589 5.60589C1.50571 6.50606 1 7.72696 1 9V28.2C1 29.473 1.50571 30.6939 2.40589 31.5941C3.30606 32.4943 4.52696 33 5.8 33H28.2C29.473 33 30.6939 32.4943 31.5941 31.5941C32.4943 30.6939 33 29.473 33 28.2V9C33 7.72696 32.4943 6.50606 31.5941 5.60589C30.6939 4.70571 29.473 4.2 28.2 4.2ZM29.8 28.2C29.8 28.6243 29.6314 29.0313 29.3314 29.3314C29.0313 29.6314 28.6243 29.8 28.2 29.8H5.8C5.37565 29.8 4.96869 29.6314 4.66863 29.3314C4.36857 29.0313 4.2 28.6243 4.2 28.2V17H29.8V28.2ZM29.8 13.8H4.2V9C4.2 8.57565 4.36857 8.16869 4.66863 7.86863C4.96869 7.56857 5.37565 7.4 5.8 7.4H9V9C9 9.42435 9.16857 9.83131 9.46863 10.1314C9.76869 10.4314 10.1757 10.6 10.6 10.6C11.0243 10.6 11.4313 10.4314 11.7314 10.1314C12.0314 9.83131 12.2 9.42435 12.2 9V7.4H21.8V9C21.8 9.42435 21.9686 9.83131 22.2686 10.1314C22.5687 10.4314 22.9757 10.6 23.4 10.6C23.8243 10.6 24.2313 10.4314 24.5314 10.1314C24.8314 9.83131 25 9.42435 25 9V7.4H28.2C28.6243 7.4 29.0313 7.56857 29.3314 7.86863C29.6314 8.16869 29.8 8.57565 29.8 9V13.8Z"
        fill="#363636" />
</svg>