<svg width="18" height="19" viewBox="0 0 18 19" fill="none" xmlns="http://www.w3.org/2000/svg">
    <path
        d="M14.6413 5.37078C14.6363 5.27877 14.5961 5.19221 14.5291 5.12893C14.4622 5.06564 14.3735 5.03044 14.2813 5.03058H12.4201V4.45998C12.4201 4.01086 12.3317 3.56613 12.1598 3.1512C11.9879 2.73627 11.736 2.35925 11.4184 2.04167C11.1009 1.7241 10.7238 1.47218 10.3089 1.30031C9.89397 1.12844 9.44924 1.03998 9.00012 1.03998C8.551 1.03998 8.10628 1.12844 7.69135 1.30031C7.27641 1.47218 6.89939 1.7241 6.58182 2.04167C6.26424 2.35925 6.01233 2.73627 5.84045 3.1512C5.66858 3.56613 5.58012 4.01086 5.58012 4.45998V5.03778H3.71712C3.62498 5.03764 3.53629 5.07284 3.46932 5.13613C3.40234 5.19941 3.36219 5.28597 3.35712 5.37798L2.65332 17.5784C2.65037 17.6274 2.6575 17.6766 2.67427 17.7228C2.69103 17.769 2.71708 17.8113 2.75081 17.847C2.78454 17.8828 2.82523 17.9112 2.87038 17.9307C2.91553 17.9501 2.96417 17.9601 3.01332 17.96H14.9869C15.0361 17.9601 15.0847 17.9501 15.1299 17.9307C15.175 17.9112 15.2157 17.8828 15.2494 17.847C15.2832 17.8113 15.3092 17.769 15.326 17.7228C15.3427 17.6766 15.3499 17.6274 15.3469 17.5784L14.6413 5.37078ZM6.30012 4.45998C6.30012 4.10541 6.36996 3.75431 6.50565 3.42673C6.64134 3.09915 6.84022 2.80151 7.09093 2.55079C7.34165 2.30007 7.6393 2.10119 7.96688 1.9655C8.29446 1.82982 8.64555 1.75998 9.00012 1.75998C9.35469 1.75998 9.70579 1.82982 10.0334 1.9655C10.3609 2.10119 10.6586 2.30007 10.9093 2.55079C11.16 2.80151 11.3589 3.09915 11.4946 3.42673C11.6303 3.75431 11.7001 4.10541 11.7001 4.45998V5.03778H6.30012V4.45998ZM3.39492 17.24L4.05732 5.75058H5.58012V8.91318C5.58012 9.00866 5.61805 9.10022 5.68556 9.16774C5.75308 9.23525 5.84464 9.27318 5.94012 9.27318C6.0356 9.27318 6.12717 9.23525 6.19468 9.16774C6.26219 9.10022 6.30012 9.00866 6.30012 8.91318V5.75058H11.7001V8.91318C11.7001 9.00866 11.7381 9.10022 11.8056 9.16774C11.8731 9.23525 11.9646 9.27318 12.0601 9.27318C12.1556 9.27318 12.2472 9.23525 12.3147 9.16774C12.3822 9.10022 12.4201 9.00866 12.4201 8.91318V5.75058H13.9501L14.6053 17.24H3.39492Z"
        fill="#3C3C3C" />
</svg>