<svg width="18" height="19" viewBox="0 0 18 19" fill="none" xmlns="http://www.w3.org/2000/svg">
    <g clip-path="url(#clip0_1_7849)">
        <path
            d="M16.0741 14.144C16.9561 12.812 17.4601 11.21 17.4601 9.49998C17.4601 7.78998 16.9561 6.20598 16.0741 4.87398C16.0561 4.83798 16.0381 4.81998 16.0201 4.78398C14.5081 2.53398 11.9161 1.03998 9.00012 1.03998C8.94612 1.03998 8.91012 1.03998 8.85612 1.03998C8.82012 1.03998 8.78412 1.03998 8.74812 1.03998C5.94012 1.12998 3.45612 2.58798 1.98012 4.78398C1.96212 4.80198 1.94412 4.83798 1.92612 4.87398C1.04412 6.20598 0.540121 7.78998 0.540121 9.49998C0.540121 11.21 1.04412 12.812 1.92612 14.144C1.94412 14.162 1.94412 14.18 1.96212 14.198C3.45612 16.412 5.94012 17.888 8.78412 17.96C8.80212 17.96 8.80212 17.96 8.82012 17.96C8.82012 17.96 8.83812 17.96 8.85612 17.96C8.91012 17.96 8.96412 17.96 9.01812 17.96C11.9521 17.96 14.5261 16.466 16.0561 14.198C16.0381 14.18 16.0561 14.162 16.0741 14.144ZM1.27812 9.85998H4.71612C4.71612 9.96798 4.71612 10.076 4.71612 10.184C4.71612 10.256 4.71612 11.804 5.22012 13.55C5.22012 13.568 5.23812 13.604 5.23812 13.622H2.44812C1.76412 12.524 1.33212 11.228 1.27812 9.85998ZM2.44812 5.37798H5.23812C4.93212 6.38598 4.73412 7.62798 4.71612 9.13998H1.27812C1.33212 7.77198 1.76412 6.47598 2.44812 5.37798ZM16.7221 9.13998H13.1041C13.0681 7.62798 12.8701 6.38598 12.5821 5.37798H15.5521C16.2361 6.47598 16.6681 7.77198 16.7221 9.13998ZM12.3841 9.13998H9.36012V5.37798H11.8261C12.1501 6.34998 12.3661 7.59198 12.3841 9.13998ZM9.36012 4.65798V2.01198C9.97212 2.35398 10.8901 3.09198 11.5561 4.65798H9.36012ZM8.64012 1.92198V4.65798H6.26412C7.00212 2.92998 8.04612 2.20998 8.64012 1.92198ZM8.64012 5.37798V9.13998H5.43612C5.47212 7.59198 5.68812 6.34998 5.99412 5.37798H8.64012ZM5.43612 10.166C5.43612 10.058 5.43612 9.94998 5.43612 9.85998H8.64012V13.622H5.99412C5.45412 11.876 5.43612 10.202 5.43612 10.166ZM8.64012 14.342V17.078C7.47012 16.538 6.73212 15.476 6.26412 14.342H8.64012ZM9.36012 16.988V14.342H11.5561C11.1061 15.422 10.4221 16.43 9.36012 16.988ZM9.36012 13.622V9.85998H12.3841C12.3841 9.96798 12.3841 10.058 12.3841 10.166C12.3841 10.202 12.3661 11.876 11.8261 13.604H9.36012V13.622ZM12.6001 13.55C13.0861 11.84 13.1041 10.292 13.1041 10.202C13.1041 10.094 13.1041 9.98598 13.1041 9.87798H16.7221C16.6501 11.246 16.2361 12.542 15.5341 13.64H12.5821C12.5821 13.586 12.5821 13.568 12.6001 13.55ZM15.0301 4.65798H12.3301C11.8081 3.28998 11.0881 2.42598 10.4401 1.88598C12.2941 2.24598 13.8961 3.25398 15.0301 4.65798ZM7.30812 1.93998C6.67812 2.47998 5.99412 3.32598 5.47212 4.65798H2.95212C4.05012 3.30798 5.56212 2.33598 7.30812 1.93998ZM2.97012 14.342H5.49012C5.92212 15.494 6.53412 16.412 7.27212 17.042C5.54412 16.646 4.03212 15.674 2.97012 14.342ZM10.4761 17.096C11.2501 16.448 11.8801 15.53 12.3301 14.342H15.0301C13.9141 15.728 12.3121 16.736 10.4761 17.096Z"
            fill="#3C3C3C" />
    </g>
    <defs>
        <clipPath id="clip0_1_7849">
            <rect width="18" height="18" fill="white" transform="translate(0.00012207 0.5)" />
        </clipPath>
    </defs>
</svg>