<svg width="24" height="25" viewBox="0 0 24 25" fill="none" xmlns="http://www.w3.org/2000/svg">
    <path
        d="M0 18.5003C0 19.2076 0.280952 19.8858 0.781049 20.3859C1.28115 20.886 1.95942 21.167 2.66667 21.167H21.3333C22.0406 21.167 22.7189 20.886 23.219 20.3859C23.719 19.8858 24 19.2076 24 18.5003V15.167H0V18.5003Z"
        fill="#138808" />
    <path
        d="M24 9.83301V6.49967C24 5.79243 23.719 5.11415 23.219 4.61406C22.7189 4.11396 22.0406 3.83301 21.3333 3.83301H2.66667C1.95942 3.83301 1.28115 4.11396 0.781049 4.61406C0.280952 5.11415 0 5.79243 0 6.49967L0 9.83301H24Z"
        fill="#FF9933" />
    <path d="M0 9.61133H24V15.3893H0V9.61133Z" fill="#F7F7F7" />
    <path
        d="M11.9987 15.1663C13.4715 15.1663 14.6654 13.9724 14.6654 12.4997C14.6654 11.0269 13.4715 9.83301 11.9987 9.83301C10.5259 9.83301 9.33203 11.0269 9.33203 12.4997C9.33203 13.9724 10.5259 15.1663 11.9987 15.1663Z"
        fill="#000080" />
    <path
        d="M12 14.75C13.2426 14.75 14.25 13.7426 14.25 12.5C14.25 11.2574 13.2426 10.25 12 10.25C10.7574 10.25 9.75 11.2574 9.75 12.5C9.75 13.7426 10.7574 14.75 12 14.75Z"
        fill="#F7F7F7" />
    <path
        d="M12.0672 11.6672L12.0005 12.1005L11.9339 11.6672L12.0005 10.3672L12.0672 11.6672ZM11.4485 10.4399L11.7205 11.7125L11.8972 12.1139L11.8492 11.6785L11.4485 10.4399ZM10.9339 10.6532L11.5259 11.8119L11.8005 12.1539L11.6419 11.7452L10.9339 10.6532ZM10.4919 10.9919L11.3639 11.9585L11.7179 12.2179L11.4585 11.8639L10.4919 10.9919ZM10.1532 11.4339L11.2452 12.1419L11.6539 12.3005L11.3119 12.0259L10.1532 11.4339ZM9.93985 11.9485L11.1785 12.3492L11.6139 12.3972L11.2125 12.2205L9.93985 11.9485ZM9.86719 12.5005L11.1672 12.5672L11.6005 12.5005L11.1672 12.4339L9.86719 12.5005ZM9.93985 13.0525L11.2125 12.7805L11.6139 12.6039L11.1785 12.6519L9.93985 13.0525ZM10.1532 13.5672L11.3119 12.9752L11.6539 12.7005L11.2452 12.8592L10.1532 13.5672ZM10.4919 14.0092L11.4585 13.1372L11.7179 12.7832L11.3639 13.0425L10.4919 14.0092ZM10.9339 14.3479L11.6419 13.2559L11.8005 12.8472L11.5259 13.1892L10.9339 14.3479ZM11.4485 14.5612L11.8492 13.3225L11.8972 12.8872L11.7205 13.2885L11.4485 14.5612ZM12.0005 14.6339L12.0672 13.3339L12.0005 12.9005L11.9339 13.3339L12.0005 14.6339ZM12.5525 14.5612L12.2805 13.2885L12.1039 12.8872L12.1519 13.3225L12.5525 14.5612ZM13.0672 14.3479L12.4752 13.1892L12.2005 12.8472L12.3592 13.2559L13.0672 14.3479ZM13.5092 14.0092L12.6372 13.0425L12.2832 12.7832L12.5425 13.1372L13.5092 14.0092ZM13.8479 13.5672L12.7559 12.8592L12.3472 12.7005L12.6892 12.9752L13.8479 13.5672ZM14.0612 13.0525L12.8225 12.6519L12.3872 12.6039L12.7885 12.7805L14.0612 13.0525ZM14.1339 12.5005L12.8339 12.4339L12.4005 12.5005L12.8339 12.5672L14.1339 12.5005ZM14.0612 11.9485L12.7885 12.2205L12.3872 12.3972L12.8225 12.3492L14.0612 11.9485ZM13.8479 11.4339L12.6892 12.0259L12.3472 12.3005L12.7559 12.1419L13.8479 11.4339ZM13.5092 10.9919L12.5425 11.8639L12.2832 12.2179L12.6372 11.9585L13.5092 10.9919ZM13.0672 10.6532L12.3592 11.7452L12.2005 12.1539L12.4752 11.8119L13.0672 10.6532ZM12.5525 10.4399L12.1519 11.6785L12.1039 12.1139L12.2805 11.7125L12.5525 10.4399Z"
        fill="#6666B3" />
    <path
        d="M11.7076 10.4063C11.7812 10.4063 11.8409 10.3466 11.8409 10.273C11.8409 10.1993 11.7812 10.1396 11.7076 10.1396C11.6339 10.1396 11.5742 10.1993 11.5742 10.273C11.5742 10.3466 11.6339 10.4063 11.7076 10.4063Z"
        fill="#000080" />
    <path
        d="M11.1411 10.5587C11.2148 10.5587 11.2745 10.499 11.2745 10.4253C11.2745 10.3517 11.2148 10.292 11.1411 10.292C11.0675 10.292 11.0078 10.3517 11.0078 10.4253C11.0078 10.499 11.0675 10.5587 11.1411 10.5587Z"
        fill="#000080" />
    <path
        d="M10.6333 10.8507C10.707 10.8507 10.7667 10.791 10.7667 10.7173C10.7667 10.6437 10.707 10.584 10.6333 10.584C10.5597 10.584 10.5 10.6437 10.5 10.7173C10.5 10.791 10.5597 10.8507 10.6333 10.8507Z"
        fill="#000080" />
    <path
        d="M10.2193 11.2657C10.2929 11.2657 10.3526 11.206 10.3526 11.1324C10.3526 11.0587 10.2929 10.999 10.2193 10.999C10.1456 10.999 10.0859 11.0587 10.0859 11.1324C10.0859 11.206 10.1456 11.2657 10.2193 11.2657Z"
        fill="#000080" />
    <path
        d="M9.9263 11.7745C9.99994 11.7745 10.0596 11.7148 10.0596 11.6411C10.0596 11.5675 9.99994 11.5078 9.9263 11.5078C9.85266 11.5078 9.79297 11.5675 9.79297 11.6411C9.79297 11.7148 9.85266 11.7745 9.9263 11.7745Z"
        fill="#000080" />
    <path
        d="M9.77396 12.3399C9.8476 12.3399 9.90729 12.2802 9.90729 12.2066C9.90729 12.1329 9.8476 12.0732 9.77396 12.0732C9.70032 12.0732 9.64062 12.1329 9.64062 12.2066C9.64062 12.2802 9.70032 12.3399 9.77396 12.3399Z"
        fill="#000080" />
    <path
        d="M9.7739 12.927C9.84754 12.927 9.90723 12.8673 9.90723 12.7937C9.90723 12.7201 9.84754 12.6604 9.7739 12.6604C9.70026 12.6604 9.64056 12.7201 9.64056 12.7937C9.64056 12.8673 9.70026 12.927 9.7739 12.927Z"
        fill="#000080" />
    <path
        d="M9.9263 13.4932C9.99994 13.4932 10.0596 13.4335 10.0596 13.3599C10.0596 13.2863 9.99994 13.2266 9.9263 13.2266C9.85266 13.2266 9.79297 13.2863 9.79297 13.3599C9.79297 13.4335 9.85266 13.4932 9.9263 13.4932Z"
        fill="#000080" />
    <path
        d="M10.2193 14.002C10.2929 14.002 10.3526 13.9423 10.3526 13.8687C10.3526 13.795 10.2929 13.7354 10.2193 13.7354C10.1456 13.7354 10.0859 13.795 10.0859 13.8687C10.0859 13.9423 10.1456 14.002 10.2193 14.002Z"
        fill="#000080" />
    <path
        d="M10.6333 14.4161C10.707 14.4161 10.7667 14.3564 10.7667 14.2827C10.7667 14.2091 10.707 14.1494 10.6333 14.1494C10.5597 14.1494 10.5 14.2091 10.5 14.2827C10.5 14.3564 10.5597 14.4161 10.6333 14.4161Z"
        fill="#000080" />
    <path
        d="M11.1412 14.709C11.2148 14.709 11.2745 14.6493 11.2745 14.5757C11.2745 14.502 11.2148 14.4423 11.1412 14.4423C11.0676 14.4423 11.0079 14.502 11.0079 14.5757C11.0079 14.6493 11.0676 14.709 11.1412 14.709Z"
        fill="#000080" />
    <path
        d="M11.7076 14.8614C11.7812 14.8614 11.8409 14.8017 11.8409 14.7281C11.8409 14.6544 11.7812 14.5947 11.7076 14.5947C11.6339 14.5947 11.5742 14.6544 11.5742 14.7281C11.5742 14.8017 11.6339 14.8614 11.7076 14.8614Z"
        fill="#000080" />
    <path
        d="M12.2954 14.8614C12.3691 14.8614 12.4288 14.8017 12.4288 14.7281C12.4288 14.6544 12.3691 14.5947 12.2954 14.5947C12.2218 14.5947 12.1621 14.6544 12.1621 14.7281C12.1621 14.8017 12.2218 14.8614 12.2954 14.8614Z"
        fill="#000080" />
    <path
        d="M12.8599 14.709C12.9335 14.709 12.9932 14.6494 12.9932 14.5757C12.9932 14.5021 12.9335 14.4424 12.8599 14.4424C12.7863 14.4424 12.7266 14.5021 12.7266 14.5757C12.7266 14.6494 12.7863 14.709 12.8599 14.709Z"
        fill="#000080" />
    <path
        d="M13.3697 14.4171C13.4433 14.4171 13.503 14.3574 13.503 14.2837C13.503 14.2101 13.4433 14.1504 13.3697 14.1504C13.296 14.1504 13.2363 14.2101 13.2363 14.2837C13.2363 14.3574 13.296 14.4171 13.3697 14.4171Z"
        fill="#000080" />
    <path
        d="M13.7837 14.002C13.8574 14.002 13.9171 13.9423 13.9171 13.8687C13.9171 13.795 13.8574 13.7354 13.7837 13.7354C13.7101 13.7354 13.6504 13.795 13.6504 13.8687C13.6504 13.9423 13.7101 14.002 13.7837 14.002Z"
        fill="#000080" />
    <path
        d="M14.0767 13.4932C14.1503 13.4932 14.21 13.4335 14.21 13.3599C14.21 13.2863 14.1503 13.2266 14.0767 13.2266C14.0031 13.2266 13.9434 13.2863 13.9434 13.3599C13.9434 13.4335 14.0031 13.4932 14.0767 13.4932Z"
        fill="#000080" />
    <path
        d="M14.2271 12.9268C14.3007 12.9268 14.3604 12.8671 14.3604 12.7935C14.3604 12.7199 14.3007 12.6602 14.2271 12.6602C14.1534 12.6602 14.0938 12.7199 14.0938 12.7935C14.0938 12.8671 14.1534 12.9268 14.2271 12.9268Z"
        fill="#000080" />
    <path
        d="M14.2271 12.3409C14.3007 12.3409 14.3604 12.2812 14.3604 12.2076C14.3604 12.1339 14.3007 12.0742 14.2271 12.0742C14.1534 12.0742 14.0938 12.1339 14.0938 12.2076C14.0938 12.2812 14.1534 12.3409 14.2271 12.3409Z"
        fill="#000080" />
    <path
        d="M14.0766 11.7737C14.1503 11.7737 14.21 11.714 14.21 11.6404C14.21 11.5667 14.1503 11.507 14.0766 11.507C14.003 11.507 13.9433 11.5667 13.9433 11.6404C13.9433 11.714 14.003 11.7737 14.0766 11.7737Z"
        fill="#000080" />
    <path
        d="M13.7838 11.2656C13.8574 11.2656 13.9171 11.2059 13.9171 11.1323C13.9171 11.0587 13.8574 10.999 13.7838 10.999C13.7101 10.999 13.6505 11.0587 13.6505 11.1323C13.6505 11.2059 13.7101 11.2656 13.7838 11.2656Z"
        fill="#000080" />
    <path
        d="M13.3697 10.8507C13.4433 10.8507 13.503 10.791 13.503 10.7173C13.503 10.6437 13.4433 10.584 13.3697 10.584C13.296 10.584 13.2363 10.6437 13.2363 10.7173C13.2363 10.791 13.296 10.8507 13.3697 10.8507Z"
        fill="#000080" />
    <path
        d="M12.8599 10.5577C12.9335 10.5577 12.9932 10.498 12.9932 10.4243C12.9932 10.3507 12.9335 10.291 12.8599 10.291C12.7863 10.291 12.7266 10.3507 12.7266 10.4243C12.7266 10.498 12.7863 10.5577 12.8599 10.5577Z"
        fill="#000080" />
    <path
        d="M12.2954 10.4064C12.3691 10.4064 12.4288 10.3467 12.4288 10.273C12.4288 10.1994 12.3691 10.1397 12.2954 10.1397C12.2218 10.1397 12.1621 10.1994 12.1621 10.273C12.1621 10.3467 12.2218 10.4064 12.2954 10.4064Z"
        fill="#000080" />
    <path
        d="M12.0004 13.1003C12.3318 13.1003 12.6004 12.8317 12.6004 12.5003C12.6004 12.169 12.3318 11.9003 12.0004 11.9003C11.669 11.9003 11.4004 12.169 11.4004 12.5003C11.4004 12.8317 11.669 13.1003 12.0004 13.1003Z"
        fill="#000080" />
</svg>