<svg width="34" height="34" viewBox="0 0 34 34" fill="none" xmlns="http://www.w3.org/2000/svg">
    <g clip-path="url(#clip0_8_125)">
        <path
            d="M1 17C1 25.8368 8.1632 33 17 33C25.8368 33 33 25.8368 33 17C33 8.1632 25.8368 1 17 1C8.1632 1 1 8.1632 1 17Z"
            stroke="#363636" stroke-width="1.125" stroke-linecap="round" stroke-linejoin="round" />
        <path
            d="M18.7 1.49997C18.7 1.49997 23.3998 7.40033 23.3998 17.0003C23.3998 26.6003 18.7 32.5 18.7 32.5M16 32.5C16 32.5 10.5998 26.6003 10.5998 17.0003C10.5998 7.40033 15.5 1.49997 15.5 1.49997M2.5 23L31.5 22.6003M2.5 11.4003H31.5"
            stroke="#363636" stroke-width="1.5" stroke-linecap="round" stroke-linejoin="round" />
    </g>
    <defs>
        <clipPath id="clip0_8_125">
            <rect width="34" height="34" fill="white" />
        </clipPath>
    </defs>
</svg>