<svg width="16" height="16" viewBox="0 0 16 16" fill="none" xmlns="http://www.w3.org/2000/svg">
    <path
        d="M2 10.4993V5.49935C2 5.14573 2.14048 4.80659 2.39052 4.55654C2.64057 4.30649 2.97971 4.16602 3.33333 4.16602H9C9.35362 4.16602 9.69276 4.30649 9.94281 4.55654C10.1929 4.80659 10.3333 5.14573 10.3333 5.49935V10.4993C10.3333 10.853 10.1929 11.1921 9.94281 11.4422C9.69276 11.6922 9.35362 11.8327 9 11.8327H3.33333C2.97971 11.8327 2.64057 11.6922 2.39052 11.4422C2.14048 11.1921 2 10.853 2 10.4993ZM13.4453 4.66002L10.7787 7.03535C10.7435 7.06656 10.7154 7.10485 10.6961 7.1477C10.6768 7.19056 10.6667 7.23701 10.6667 7.28402V8.46935C10.6667 8.51635 10.6768 8.5628 10.6961 8.60566C10.7154 8.64852 10.7435 8.68681 10.7787 8.71802L13.4453 11.0933C13.4934 11.136 13.5527 11.1639 13.6162 11.1736C13.6798 11.1833 13.7447 11.1745 13.8033 11.1481C13.8619 11.1218 13.9117 11.0791 13.9466 11.0251C13.9815 10.9712 14 10.9083 14 10.844V4.90935C14 4.84509 13.9815 4.78221 13.9466 4.72825C13.9117 4.6743 13.8619 4.63158 13.8033 4.60523C13.7447 4.57889 13.6798 4.57004 13.6162 4.57976C13.5527 4.58948 13.4934 4.61735 13.4453 4.66002Z"
        stroke="#337AB7" stroke-linecap="round" stroke-linejoin="round" />
</svg>