<svg width="18" height="19" viewBox="0 0 18 19" fill="none" xmlns="http://www.w3.org/2000/svg">
    <path
        d="M16.7869 17.3462L12.4777 13.0262C13.8152 11.8475 14.6396 10.1933 14.7755 8.41586C14.9114 6.63838 14.348 4.87807 13.2052 3.50984C12.0625 2.1416 10.4307 1.27357 8.65749 1.09059C6.88424 0.907613 5.10961 1.42416 3.71155 2.53021C2.3135 3.63627 1.40249 5.24443 1.17256 7.01221C0.942624 8.77999 1.41193 10.5677 2.48052 11.9946C3.54911 13.4215 5.13255 14.3748 6.89361 14.6515C8.65468 14.9283 10.4542 14.5065 11.9089 13.4762L16.2793 17.8538C16.3482 17.9127 16.4368 17.9436 16.5274 17.9401C16.618 17.9366 16.7039 17.899 16.768 17.8349C16.8322 17.7708 16.8697 17.6848 16.8732 17.5942C16.8767 17.5036 16.8459 17.415 16.7869 17.3462ZM1.82712 7.89077C1.82712 6.67778 2.18684 5.49203 2.86078 4.48349C3.53472 3.47495 4.4926 2.68892 5.61329 2.22481C6.73399 1.7607 7.96714 1.63936 9.1568 1.87614C10.3465 2.11291 11.4392 2.69716 12.2968 3.555C13.1544 4.41284 13.7383 5.50574 13.9747 6.69546C14.2111 7.88519 14.0894 9.11831 13.625 10.2389C13.1606 11.3594 12.3742 12.3171 11.3655 12.9907C10.3568 13.6644 9.17091 14.0237 7.95792 14.0234C6.33221 14.0215 4.77365 13.3747 3.62426 12.225C2.47488 11.0752 1.82855 9.51649 1.82712 7.89077Z"
        fill="#3C3C3C" />
</svg>