<svg width="14" height="14" viewBox="0 0 14 14" fill="none" xmlns="http://www.w3.org/2000/svg">
    <path
        d="M12.5432 6.49987L10.1958 8.54849L10.8989 11.5985C10.9362 11.758 10.9255 11.9249 10.8684 12.0783C10.8113 12.2317 10.7102 12.3649 10.5778 12.4613C10.4454 12.5576 10.2875 12.6127 10.124 12.6198C9.96038 12.6269 9.79835 12.5856 9.65811 12.501L6.99792 10.8875L4.34345 12.501C4.20322 12.5856 4.04118 12.6269 3.8776 12.6198C3.71403 12.6127 3.55616 12.5576 3.42375 12.4613C3.29134 12.3649 3.19026 12.2317 3.13314 12.0783C3.07603 11.9249 3.06541 11.758 3.10262 11.5985L3.80475 8.55162L1.45685 6.49987C1.33267 6.39277 1.24287 6.25138 1.19872 6.09345C1.15457 5.93552 1.15803 5.76806 1.20867 5.61209C1.25931 5.45611 1.35487 5.31856 1.48337 5.21668C1.61187 5.1148 1.7676 5.05313 1.93101 5.03939L5.02581 4.77134L6.23385 1.88995C6.29693 1.73875 6.40334 1.60961 6.53968 1.51877C6.67601 1.42793 6.83618 1.37946 7 1.37946C7.16383 1.37946 7.32399 1.42793 7.46032 1.51877C7.59666 1.60961 7.70307 1.73875 7.76615 1.88995L8.97784 4.77134L12.0716 5.03939C12.235 5.05313 12.3907 5.1148 12.5192 5.21668C12.6477 5.31856 12.7433 5.45611 12.7939 5.61209C12.8446 5.76806 12.848 5.93552 12.8039 6.09345C12.7597 6.25138 12.6699 6.39277 12.5458 6.49987H12.5432Z"
        fill="white" />
</svg>