<svg width="34" height="34" viewBox="0 0 34 34" fill="none" xmlns="http://www.w3.org/2000/svg">
    <path
        d="M17.1866 1.18665C16.9355 1.18665 16.6844 1.19343 16.4333 1.20497L16.4876 2.42525C16.7183 2.41439 16.9491 2.40828 17.1866 2.40828C25.2494 2.40828 31.7784 8.93723 31.7784 17C31.7784 25.0628 25.2494 31.5917 17.1866 31.5917C11.1056 31.5917 5.89671 27.8793 3.70456 22.5924L5.57977 22.0291L2.2929 19.7012L1 23.4L2.53043 22.9453C4.88072 28.7277 10.5627 32.8134 17.1866 32.8134C25.9145 32.8134 33 25.7279 33 17C33 8.27212 25.9145 1.18665 17.1866 1.18665ZM15.0963 1.3251C14.1936 1.44387 13.3249 1.63729 12.4766 1.90062L12.8566 3.0605C13.6303 2.82024 14.438 2.6431 15.2592 2.53451L15.0963 1.3251ZM11.2278 2.35127C10.3862 2.69401 9.58537 3.10597 8.82524 3.58105L9.46999 4.61333C10.169 4.17625 10.9088 3.79687 11.6825 3.48196L11.2278 2.35127ZM7.7122 4.34253C6.99972 4.87659 6.3334 5.46958 5.72025 6.11526L6.60594 6.94868C7.16925 6.35348 7.78685 5.80781 8.43839 5.31577L8.11262 4.86987L7.7122 4.34253ZM12.4291 4.92484L12.1304 6.10847L26.8579 9.87381L27.1565 8.6929L12.4291 4.92484ZM4.83932 7.12514C4.28348 7.8174 3.78465 8.56395 3.35029 9.34444L4.41243 9.94168C4.81353 9.21549 5.27368 8.53002 5.78744 7.88527L4.83932 7.12514ZM13.5014 7.72238C13.2367 9.48696 13.6914 11.4687 14.4651 13.0976C14.8995 14.007 15.4288 14.8079 15.9514 15.3915C16.2365 15.7105 16.5215 15.9548 16.7794 16.1313L16.4129 17.5701C16.1007 17.5972 15.7343 17.6787 15.327 17.8212C14.5873 18.0791 13.7389 18.5271 12.9245 19.1175C11.4585 20.1763 10.1147 21.6897 9.50392 23.3661L20.8719 26.2776C21.1366 24.5131 20.6819 22.5313 19.9082 20.9024C19.4738 19.993 18.9444 19.1922 18.4218 18.6085C18.1368 18.2895 17.8518 18.0452 17.5939 17.8687L17.9603 16.4299C18.2657 16.396 18.639 16.3213 19.0462 16.1788C19.786 15.9209 20.6344 15.473 21.4488 14.8825C22.9147 13.8238 24.2585 12.3103 24.8694 10.6339L13.5014 7.72238ZM2.74694 10.5457C2.3852 11.3601 2.08861 12.2017 1.86464 13.0772L3.05099 13.3623C3.25663 12.5614 3.52878 11.7877 3.86201 11.0412L2.74694 10.5457ZM1.59046 14.3871C1.44861 15.2354 1.37328 16.1109 1.37328 17V17.0611L2.59491 17.0475V17C2.59491 16.1788 2.66414 15.3712 2.79512 14.5839L1.59046 14.3871ZM7.51538 24.1262L7.21676 25.3071L21.9442 29.0738L22.2428 27.8929L7.51538 24.1262Z"
        fill="#363636" />
</svg>