<svg width="18" height="19" viewBox="0 0 18 19" fill="none" xmlns="http://www.w3.org/2000/svg">
    <g clip-path="url(#clip0_1_7845)">
        <path
            d="M17.4601 9.50002C17.4601 8.10327 17.1143 6.72825 16.4535 5.49768C15.7927 4.26712 14.8376 3.21931 13.6732 2.44778C12.5089 1.67624 11.1717 1.20499 9.78089 1.07609C8.39011 0.94718 6.98904 1.16463 5.70275 1.70903C4.41646 2.25343 3.28497 3.10783 2.40928 4.19599C1.53358 5.28414 0.940936 6.57218 0.68423 7.94514C0.427524 9.31809 0.514749 10.7333 0.938118 12.0643C1.36149 13.3953 2.10783 14.6008 3.11052 15.5732C4.67856 17.0955 6.77556 17.9509 8.96099 17.9596C11.1464 17.9684 13.2502 17.1298 14.8303 15.62C14.865 15.5972 14.8954 15.5686 14.9203 15.5354C15.7244 14.7494 16.3633 13.8106 16.7995 12.7741C17.2357 11.7377 17.4603 10.6245 17.4601 9.50002ZM9.00012 1.76002C10.4969 1.76115 11.9613 2.19626 13.2159 3.01266C14.4704 3.82906 15.4614 4.99171 16.0686 6.35979C16.6759 7.72788 16.8735 9.2427 16.6374 10.7208C16.4013 12.1988 15.7417 13.5768 14.7385 14.6876C14.3402 13.8984 13.7827 13.2004 13.1012 12.6375C12.4196 12.0745 11.6287 11.659 10.7785 11.417C11.4836 11.0227 12.0379 10.4056 12.3546 9.66243C12.6714 8.91929 12.7327 8.09207 12.5289 7.31036C12.3251 6.52864 11.8678 5.8366 11.2286 5.34265C10.5894 4.84869 9.80435 4.58073 8.99652 4.58073C8.18869 4.58073 7.40368 4.84869 6.76446 5.34265C6.12524 5.8366 5.66792 6.52864 5.46416 7.31036C5.26039 8.09207 5.32168 8.91929 5.63843 9.66243C5.95518 10.4056 6.50949 11.0227 7.21452 11.417C6.36405 11.659 5.57302 12.0747 4.8914 12.638C4.20979 13.2013 3.65243 13.8998 3.25452 14.6894C1.96383 13.2701 1.25219 11.4184 1.26012 9.50002C1.26012 7.44724 2.07558 5.47854 3.52712 4.02701C4.97865 2.57548 6.94735 1.76002 9.00012 1.76002ZM9.00012 11.165C8.42031 11.165 7.85354 10.993 7.37152 10.6708C6.8895 10.3485 6.51391 9.89056 6.29227 9.35478C6.07064 8.81901 6.01292 8.22953 6.12643 7.66094C6.23994 7.09235 6.51957 6.57021 6.92993 6.1606C7.3403 5.75099 7.86295 5.47233 8.43175 5.35987C9.00054 5.24741 9.58992 5.30621 10.1253 5.52883C10.6607 5.75146 11.1179 6.12789 11.4393 6.61051C11.7606 7.09312 11.9316 7.66021 11.9305 8.24002C11.9286 9.01613 11.6191 9.75982 11.0698 10.3081C10.5205 10.8564 9.77623 11.1645 9.00012 11.165ZM3.80172 15.2312C4.25578 14.2335 4.98736 13.3875 5.90913 12.7943C6.83091 12.201 7.90394 11.8856 9.00012 11.8856C10.0963 11.8856 11.1693 12.201 12.0911 12.7943C13.0129 13.3875 13.7445 14.2335 14.1985 15.2312C12.7761 16.5245 10.9226 17.2412 9.00012 17.2412C7.07763 17.2412 5.22417 16.5245 3.80172 15.2312Z"
            fill="#3C3C3C" />
    </g>
    <defs>
        <clipPath id="clip0_1_7845">
            <rect width="18" height="18" fill="white" transform="translate(0.00012207 0.5)" />
        </clipPath>
    </defs>
</svg>