<svg width="22" height="23" viewBox="0 0 22 23" fill="none" xmlns="http://www.w3.org/2000/svg">
    <path
        d="M15.5456 19.6818V17.8636C15.5456 16.8992 15.1625 15.9743 14.4806 15.2923C13.7986 14.6103 12.8737 14.2272 11.9092 14.2272H4.63641C3.67197 14.2272 2.74704 14.6103 2.06508 15.2923C1.38312 15.9743 1 16.8992 1 17.8636V19.6818"
        stroke="#337AB7" stroke-width="1.77778" stroke-linecap="round" stroke-linejoin="round" />
    <path
        d="M8.27117 10.5908C10.2795 10.5908 11.9076 8.96276 11.9076 6.95443C11.9076 4.9461 10.2795 3.31802 8.27117 3.31802C6.26284 3.31802 4.63477 4.9461 4.63477 6.95443C4.63477 8.96276 6.26284 10.5908 8.27117 10.5908Z"
        stroke="#337AB7" stroke-width="1.77778" stroke-linecap="round" stroke-linejoin="round" />
    <path
        d="M21.0007 19.682V17.8638C21.0001 17.0581 20.732 16.2754 20.2383 15.6386C19.7447 15.0018 19.0536 14.547 18.2734 14.3456"
        stroke="#337AB7" stroke-width="1.77778" stroke-linecap="round" stroke-linejoin="round" />
    <path
        d="M14.6367 3.43619C15.4189 3.63646 16.1122 4.09138 16.6073 4.72921C17.1024 5.36705 17.3712 6.15152 17.3712 6.95896C17.3712 7.76639 17.1024 8.55087 16.6073 9.1887C16.1122 9.82654 15.4189 10.2815 14.6367 10.4817"
        stroke="#337AB7" stroke-width="1.77778" stroke-linecap="round" stroke-linejoin="round" />
</svg>